<svg width="512" height="512" viewBox="0 0 512 512" fill="none" xmlns="http://www.w3.org/2000/svg">
  <rect width="512" height="512" rx="120" fill="#F6EFE4"/>
  <rect x="70" y="70" width="372" height="372" rx="92" fill="#132126"/>
  <path d="M152 166C152 147.222 167.222 132 186 132H272C327.228 132 372 176.772 372 232C372 287.228 327.228 332 272 332H210V380H152V166Z" fill="#FFF8F1"/>
  <path d="M210 188V276H269C292.748 276 312 256.748 312 233C312 209.252 292.748 190 269 190L210 188Z" fill="#D86433"/>
  <path d="M252 344L314.5 286L381 380H307L252 344Z" fill="#D86433"/>
  <circle cx="344" cy="164" r="28" fill="#FFF8F1"/>
  <path d="M344 146L349.881 157.91L363 159.816L353.5 169.078L355.742 182.163L344 176L332.258 182.163L334.5 169.078L325 159.816L338.119 157.91L344 146Z" fill="#132126"/>
</svg>
